<?xml version="1.0" encoding="UTF-8"?>
<!-- Created with Inkscape (http://www.inkscape.org/) -->
<svg width="330" height="52" version="1.1" viewBox="0 0 330 52" xmlns="http://www.w3.org/2000/svg">
 <g transform="translate(-18.516 -52.459)">
  <path d="m171.8 53.459c-5.098 0-9.362 2.1-12.797 6.2907-3.4346 4.1907-5.152 9.3812-5.152 15.581 0 6.7181 1.6525 12.058 4.9575 16.011 3.305 3.9315 7.7634 5.8949 13.38 5.8949 6.286 0 10.434-2.3785 12.442-7.1308 0.95041-2.2466 1.4303-4.4175 1.4303-6.5129 0-1.4041-0.42124-2.1038-1.2636-2.1038-0.64753 0-1.0171 0.45362-1.1039 1.3609-0.34562 3.7587-1.428 6.6556-3.2425 8.6861-1.7929 2.0089-4.1969 3.0134-7.2211 3.0134-3.7803 0-6.742-1.7436-8.8806-5.2214-2.117-3.4779-3.1732-8.2796-3.1732-14.414 0-7.1285 1.1533-12.183 3.4647-15.164 1.8361-2.3978 4.1236-3.5967 6.867-3.5967 2.5706 0 4.7678 0.95901 6.5823 2.8815 1.8145 1.9226 2.968 4.5279 3.4647 7.8113l0.42355 0.22225 0.29164-0.74295c1.4257-3.3915 3.1106-6.7806 5.0548-10.172l0.35406-0.61794-0.52081-0.29163c-0.90727 0.62656-1.931 0.93725-3.0759 0.93725-1.0584 0-2.4001-0.31094-4.0202-0.93725-3.089-1.188-5.8432-1.7844-8.2626-1.7844zm76.113 0.36106c-3.9315 0-7.1262 1.0692-9.5888 3.2078-2.441 2.117-3.6592 4.8774-3.6592 8.2904 0 3.305 0.91334 5.891 2.7496 7.7488 1.8361 1.8577 4.7979 3.1862 8.8806 3.9855 5.2924 1.0368 8.7918 2.1578 10.498 3.3675 2.3762 1.7065 3.5619 3.8644 3.5619 6.4782 0 2.2681-0.84857 4.0765-2.5552 5.4158-1.7065 1.3393-4.0071 2.0066-6.9017 2.0066-3.6722 0-6.6471-0.93967-8.9153-2.819-2.2682-1.8793-3.6291-4.517-4.0827-7.9085l-0.58331-0.15981c-1.08 3.6507-2.9594 7.4934-5.638 11.533l0.26394 0.45838c1.4041-0.84238 2.765-1.2636 4.0827-1.2636 0.99354 0 2.2573 0.18125 3.7911 0.5485l3.7911 0.93738c3.0458 0.75612 5.8 1.1387 8.2626 1.1387 3.9315 0 7.2234-1.1989 9.8804-3.5967 2.6786-2.4194 4.0202-5.4004 4.0202-8.943 0-6.3508-3.9014-10.466-11.7-12.345l-5.4783-1.3331c-5.4652-1.3176-8.1932-3.7864-8.1932-7.4155 0-1.9442 0.76443-3.5581 2.2982-4.8326 1.5337-1.296 3.4586-1.9441 5.7699-1.9441 2.5058 0 4.7416 0.8749 6.7073 2.6246 0.77775 0.69135 1.3609 1.4173 1.7497 2.1733 0.38886 0.75612 0.88094 2.1038 1.4859 4.048 0.0425 0.129 0.10754 0.31781 0.19444 0.5555l0.16662-0.19444c0.432-0.73449 1.3069-2.7241 2.6246-5.9643 0.66972-1.6417 1.5638-3.2163 2.6871-4.7284l-0.35418-0.16662c-1.2529 0.73434-2.4132 1.104-3.4717 1.104-0.7561 0-1.9225-0.21381-3.4994-0.64581-3.3699-0.90729-6.3184-1.3609-8.8458-1.3609zm-118.4 0.15981c-5.8972 0-11.406 1.4774-16.525 4.4368l0.26394 0.0967c1.0584 0.4105 2.0822 0.92274 3.0759 1.5275v15.942c-0.49694 0.06438-1.0346 0.09669-1.6178 0.09669-0.53999 0-1.2983-0.0325-2.2705-0.09669-0.0425 0.13037-0.0752 0.22706-0.0967 0.29162-0.2595 0.88511-0.40838 1.3712-0.45132 1.4581-0.38899 1.1016-0.60981 1.8014-0.65278 2.1038l0.36106-0.13169c1.9009-0.56163 3.4886-0.84023 4.7631-0.84023v1.6872l-0.26394 0.06307-1.715 0.42356c-0.53999 0.129-1.2853 0.37569-2.2358 0.74295l0.29162 0.64581 0.25689-0.09669c1.0152-0.34562 2.1494-0.65652 3.4022-0.93725l0.26394-0.035v10.887l-4.2146 3.8605h14.324l-3.6939-3.8604v-14.449l0.35406-0.06188c3.7155-0.45362 6.2429-0.87477 7.5822-1.2636 0.086 0.19469 0.13825 0.32438 0.15982 0.38887l0.32643 0.93739c0.0218 0.06438 0.0994 0.22681 0.22913 0.486-1.6633 0.71299-3.7309 1.1989-6.1935 1.4581l-0.68047 0.09674v13.06l4.7007 4.9853h-15.421l0.51382 0.87476h16.754l-5.7009-6.09v-12.116l0.25692-0.035c2.5058-0.4105 4.5016-0.96117 5.9921-1.6525l0.13168 0.32644c2.4842 5.8108 4.4152 12.894 5.7977 21.254l0.16663 1.0345 0.48599-0.31937c3.089-2.0089 6.2382-3.5643 9.4569-4.6659l0.48599-0.16663c-2.5702-2.0737-5.1362-5.0547-7.7067-8.9429-2.549-3.8883-4.5711-7.8799-6.0616-11.984 3.3698-0.86402 6.0268-2.2574 7.971-4.1799 1.9441-1.9441 2.9162-4.1737 2.9162-6.6795 0-3.0674-1.4905-5.5948-4.4715-7.5821-2.9594-1.9874-6.7312-2.9787-11.311-2.9787zm80.911 0.13169c-5.4868 0-9.848 1.9179-13.088 5.763-3.2402 3.8451-4.8604 9.0294-4.8604 15.553 0 7.6253 2.3654 13.387 7.0961 17.275 3.2186 2.6354 6.8862 3.9508 11.012 3.9508 5.2276 0 9.3882-1.8662 12.477-5.6033 3.1106-3.7371 4.6659-8.7532 4.6659-15.039 0-6.6533-1.5746-11.967-4.7284-15.942-3.1322-3.9747-7.3253-5.9574-12.574-5.9574zm-188.62 0.41669 4.2771 4.0202v26.794c0 2.9162-0.38881 5.0548-1.1665 6.4157-0.75611 1.3393-2.3306 2.6678-4.7284 3.9855l-0.68047 0.36106h14.449l1.2012 1.7775h-15.907l0.58331 0.87477h16.942l-2.9162-3.6937c-1.1232-1.1449-1.8362-2.1879-2.1386-3.1384-0.30244-0.95041-0.45138-2.5706-0.45138-4.8603v-17.143l8.8805 26.149h2.2635l12.054-33.279v4.9575l-10.818 30.134h-2.819l0.25687 0.87476h3.1106l10.269-28.252v21.809l-4.4993 3.7911h14.9l-3.9855-3.791v-33.28l4.4437-4.5062h-16.428l3.9508 4.2493-8.3598 23.101-7.7141-22.587 4.0549-2.8468-0.68047-0.5555-4.2493 3.1453 8.2973 24.045-1.1665 2.819-9.1722-27.121 4.7006-4.2493zm48.965 0 4.9228 3.8883v13.838c-3.5427 0-5.8108 1.7304-6.8045 5.1867 1.8145-1.6201 3.8235-2.4302 6.0268-2.4302 0.15119 0 0.41038 0.02063 0.77762 0.06307v1.5206c-2.2682 0.28081-4.0634 0.89653-5.3811 1.8469l0.45838 0.68046c1.4689-0.90742 3.1083-1.4644 4.9228-1.6803v14.449l-4.9228 3.7564h36.321c-1.9226-1.901-3.3027-3.5596-4.1452-4.9853-0.82075-1.4257-1.5144-3.3313-2.0761-5.7074-0.19469 0.34562-0.32437 0.58562-0.38881 0.71526l-1.715 2.9509c-1.0585 1.8361-2.5166 3.0674-4.3743 3.6939-1.8577 0.62656-4.9946 0.93739-9.4013 0.93739v-15.81h7.0683l-0.84713-0.84724h-7.0267v16.657h-2.0761v-18.178h8.8458l4.1799 5.4158v-13.97l-4.1799 5.7352h-5.9644v-12.311l0.68046-0.035c1.7713-0.08731 3.0026-0.13169 3.6939-0.13169 2.2897 0 3.8257 0.129 4.6034 0.38887 0.77775 0.25919 2.0414 1.0824 3.7911 2.4649 0.129 0.10749 0.34331 0.27025 0.64582 0.486-1.0152-1.6849-2.1686-2.819-3.4647-3.4023-1.296-0.58331-3.3182-0.87477-6.0616-0.87477-1.4905 0-3.052 0.07794-4.6937 0.22912v13.185h-2.0761v-14.907c2.2682-0.1075 4.2123-0.15981 5.8324-0.15981 3.5211 0 5.9643 0.37581 7.3252 1.1317 1.3609 0.75612 2.6308 2.4348 3.8189 5.027 0.1075 0.23762 0.27 0.60025 0.486 1.097 1.296-3.4995 3.0458-6.597 5.2492-9.2972l0.52081-0.61794zm199.47 0 4.4021 3.9577v21.511c0 6.178 0.90096 10.358 2.694 12.54 2.2466 2.765 6.1996 4.1521 11.859 4.1521 5.3572 0 8.96-1.3871 10.818-4.1521 0.73448-1.0799 1.2204-2.4603 1.4581-4.1452 0.25919-1.6849 0.38888-4.4522 0.38888-8.2973v-20.927l5.8046-4.6382h-13.803l5.0548 4.6382-0.13169 20.962c0 5.4652-0.53156 9.0295-1.59 10.693-1.3177 2.0522-3.7216 3.0759-7.2211 3.0759-3.1754 0-5.4374-0.66743-6.7767-2.0066-1.3393-1.3609-2.0066-3.6483-2.0066-6.867l-0.0631-4.9923v-21.191l4.4021-4.3118zm40.535 0 4.4715 4.1174v33.793l-4.4715 3.6661h33.828c-2.1385-2.1602-4.2254-6.1912-6.256-12.088-0.60494 3.4994-1.7906 6.0137-3.5619 7.5474-1.7497 1.5121-4.3419 2.2705-7.7766 2.2705-0.88565 0-1.8192-0.04626-2.7912-0.13169v-34.022l3.1453-3.2078-0.45137-0.70828-3.4994 3.5272v34.411h-0.29163l-1.1665-0.0967h-0.26394v-34.633l4.5687-4.4437zm-24.336 1.0692-3.6591 3.5689v24.302c0 2.9378 0.34331 5.1088 1.0345 6.5129 0.69135 1.4041 1.9418 2.4734 3.7564 3.2078l-0.0631-0.29162c-1.3826-1.1665-2.3222-2.1648-2.819-2.9857l-1.0067-4.1105 0.0349-2.2358v-24.079l3.1731-3.2078zm-65.677 0.16662v0.35419c2.9162 1.7497 5.1581 4.3936 6.7351 7.9363 1.5985 3.5427 2.4024 7.684 2.4024 12.415 0 6.3509-1.7436 11.568-5.2214 15.65-3.4778 4.0827-7.9231 6.124-13.345 6.124-4.0395 0-7.4031-0.98509-10.082-2.9509v0.15956c3.1971 2.4842 6.6317 3.7286 10.304 3.7286 5.746 0 10.38-2.1386 13.901-6.4157 3.5427-4.2771 5.3186-9.8958 5.3186-16.852 0-4.7307-0.90097-8.8975-2.694-12.505-1.7929-3.6075-4.2293-6.1541-7.3183-7.6446zm44.486 0.06307-0.15982 0.25694-2.201 4.2771c-1.1881 2.2898-2.0954 4.1498-2.7218 5.5755l-0.13168 0.29162 0.77761 0.32644 0.15981-0.22912c0.19443-0.36725 1.05-2.1362 2.5621-5.3117 0.62656-1.3609 1.3779-2.7866 2.2635-4.2771l0.29162-0.486zm43.028 0.22913-4.8256 3.9508v20.74c0 6.1349-0.51843 10.218-1.5553 12.248-1.9441 3.7587-5.8972 5.638-11.859 5.638-4.1691 0-7.5844-0.77762-10.241-2.333l-1.1317-0.64581-0.25686-0.13169c2.6786 2.657 6.6702 3.9855 11.984 3.9855 6.1564 0 10.298-2.0352 12.415-6.0963 1.0368-2.0089 1.5553-6.3053 1.5553-12.894v-20.122l4.4021-3.6591zm-201.83 0.06305c-2.2898 2.7866-4.1629 5.8517-5.6102 9.2l0.5555 0.68046c0.88578-2.3978 2.6416-5.3657 5.2769-8.9083l0.22913-0.29162zm22.066 0.19444c2.8298 0 5.1689 0.79079 7.0267 2.3677 1.8577 1.5553 2.7912 3.5318 2.7912 5.9296 0 2.6786-1.0368 4.8557-3.1106 6.5406-2.0522 1.6633-5.2083 2.8884-9.4638 3.6661l-0.35406 0.06188v-15.296c0.99369-0.25919 2.1471-0.38881 3.4647-0.38881 1.6849 0 3.1299 0.253 4.3396 0.74979 1.2096 0.47525 2.6161 1.3562 4.2146 2.6524-1.5121-2.765-4.3766-4.1452-8.5889-4.1452-1.6633 0-3.089 0.162-4.2771 0.486v15.942c-0.56162 0.10749-1.151 0.15981-1.7775 0.15981v-17.463c1.5553-0.84251 3.4671-1.2636 5.7352-1.2636zm-62.053 0.19444-3.8258 2.6246v33.668l4.5062 5.0825h-15.685l0.45837 0.87476h17.206l-5.638-6.4156v-32.662l3.6591-2.6246zm122.83 0.13169-0.31937 0.58331-2.5968 4.5965c-0.82088 1.4905-1.7667 3.3698-2.8468 5.638l-0.36107 0.81242 0.87477 0.42356c1.4041-3.305 3.2834-6.9665 5.638-10.984l0.36106-0.61794zm21.129 0.25694c3.2834 0 5.8108 1.4064 7.5821 4.2146 1.6849 2.7002 2.5274 7.4695 2.5274 14.317 0 6.0484-0.8749 10.65-2.6246 13.803-1.7497 3.1322-4.2964 4.7007-7.6446 4.7007-7.1933 0-10.79-5.9296-10.79-17.789 0-12.831 3.6483-19.247 10.95-19.247zm-37.876 1.0692c-6.1349 0-9.2069 5.5863-9.2069 16.754 0 5.206 0.75841 9.5155 2.2705 12.929 1.5337 3.3915 3.575 5.3417 6.124 5.8602v-0.31938c-2.3546-0.95042-4.1822-3.0373-5.4783-6.256-1.296-3.2402-1.9441-7.2905-1.9441-12.151 0-10.671 2.7997-16.004 8.3945-16.004 1.7498 0 3.6098 0.78379 5.5755 2.3607v-0.41669c-1.7497-1.8369-3.6614-2.7573-5.7352-2.7573zm76.37 0.09674c-1.9441 0-3.5187 0.53156-4.7284 1.59-1.2096 1.0585-1.8192 2.4255-1.8192 4.1105 0 2.4194 1.4257 4.2663 4.2771 5.5408l0.16663-0.25694-0.26394-0.15969c-2.1818-1.6849-3.2703-3.3313-3.2703-4.9298 0-1.4689 0.53781-2.674 1.6178-3.6244 1.0801-0.95042 2.441-1.4303 4.0827-1.4303 2.7218 0 5.2754 1.2636 7.6516 3.7911l0.22225-0.125c-0.64805-1.4257-1.6718-2.5274-3.0759-3.305-1.3825-0.79925-3.0026-1.2012-4.8603-1.2012zm-104.27 0.06307c1.7065 2.5058 2.5552 4.8195 2.5552 6.9364 0 5.1411-3.305 8.9646-9.9151 11.47l0.19443 0.5485c3.5643 9.1159 8.457 15.752 14.678 19.9-4.666 1.2745-9.0595 3.2573-13.185 5.9574l0.64581 0.52081 0.29164-0.19443c4.3419-2.7002 8.9885-4.7091 13.935-6.0268-3.3051-2.1169-6.04-4.5016-8.2001-7.1586-3.4562-4.2555-5.8602-8.6105-7.2211-13.06 6.3293-2.5706 9.4916-6.3424 9.4916-11.311 0-3.0674-1.0886-5.5948-3.2703-7.5821zm66.101 0.7498c-6.1121 0.18438-9.1722 6.1817-9.1722 17.983 0 4.2555 0.45361 7.6315 1.3609 10.137 0.92879 2.4842 2.4711 4.4931 4.6312 6.0268l0.29163-0.31937c-3.5211-2.657-5.277-8.0682-5.277-16.234 0-11.168 2.8383-16.754 8.5195-16.754 1.7281 0 3.6267 0.57012 5.7005 1.715l0.55549 0.32644c-1.3393-1.9225-3.4454-2.8815-6.3184-2.8815-0.0981 0-0.19456-0.0028-0.29174 0zm-182.1 3.3328 1.7844 5.152v21.552c0 2.765 1.056 4.8773 3.1731 6.3462l0.29162 0.486c-2.1385-0.60596-3.5511-1.578-4.2424-2.9173-0.66971-1.3393-1.0067-3.7888-1.0067-7.353zm67.913 4.9575v14.324l0.81228 0.42356v-14.324zm140.4 7.228c0.30251 1.3609 1.2552 2.4433 2.8537 3.2425 1.5985 0.77775 4.7284 1.7042 9.3944 2.7843 3.2186 0.75611 5.3896 1.3979 6.5129 1.9164 1.1449 0.51844 2.201 1.3346 3.1731 2.458l0.22913-0.13169c-0.49694-1.296-1.3393-2.255-2.5274-2.8815-1.1665-0.64805-3.5188-1.4126-7.0614-2.2983l-5.2214-1.2983c-3.4563-0.84238-5.5362-1.8986-6.249-3.1731zm27.121 1.1665v0.19444c2.333 2.4842 3.4995 5.3811 3.4995 8.6861 0 3.9099-1.5229 7.2473-4.5687 10.012-3.0242 2.7434-6.6988 4.1105-11.019 4.1105-2.2034 0-4.2964-0.233-6.2838-0.70828l-4.9923-1.2008c-1.6633-0.38881-3.1407-0.58331-4.4368-0.58331-1.1665 0-2.3137 0.25919-3.4369 0.77775l0.38881 0.93725c1.0368-0.49681 2.171-0.74295 3.4022-0.74295 1.3825 0 2.6786 0.14887 3.8883 0.45131l5.1867 1.2636c1.8793 0.47531 3.9855 0.71526 6.3184 0.71526 4.5796 0 8.4678-1.4257 11.665-4.2771 3.197-2.873 4.7979-6.3724 4.7979-10.498 0-3.8667-1.4712-6.9125-4.4091-9.1375zm-76.176 7.4225-0.0699 0.74294c-0.21593 2.7434-0.63721 4.9468-1.2636 6.6101-0.62643 1.6633-1.5985 3.1669-2.9162 4.5062-2.7002 2.7434-6.1865 4.1105-10.464 4.1105-3.9099 0-7.2473-0.90715-10.012-2.7218v0.26394c3.1106 2.2249 6.4674 3.3328 10.075 3.3328 4.7523 0 8.4462-1.3933 11.082-4.1799 2.657-2.8082 4.1607-6.8909 4.5062-12.248zm53.103 1.9094-0.8749 0.15969c0.84239 4.4067 3.2726 7.1933 7.2905 8.3598v-0.25694c-3.4778-1.6202-5.6164-4.3744-6.4157-8.2627zm100.06 0.84024 0.1317 0.36106c1.4257 3.5859 3.3243 6.8323 5.7005 9.7485l-0.93739 2.0414h-34.286l0.81243 0.87476h33.828l1.4581-2.9162-0.25695-0.31938c-2.0089-2.7002-3.7394-5.6488-5.1867-8.8458l-0.22912-0.5555zm-237.87 0.90958c1.2744 3.2618 3.4647 6.3269 6.5754 9.1999l-1.097 2.0414h-35.481l0.51381 0.87477h35.383l1.6872-2.9162-0.52081-0.51381c-2.8297-2.7661-4.8387-5.5334-6.0268-8.2984z" fill="#002A46" />
 </g>
</svg>
